<?xml version="1.0" standalone="no"?>
<!DOCTYPE svg PUBLIC "-//W3C//DTD SVG 20010904//EN"
 "http://www.w3.org/TR/2001/REC-SVG-20010904/DTD/svg10.dtd">
<svg version="1.0" xmlns="http://www.w3.org/2000/svg"
 width="82.000000pt" height="64.000000pt" viewBox="0 0 82.000000 64.000000"
 preserveAspectRatio="xMidYMid meet">
<g transform="translate(0.000000,64.000000) scale(0.050000,-0.050000)"
fill="#007f8d" stroke="none">
<path d="M1135 1231 c-30 -16 -66 -36 -80 -45 -14 -9 -103 -16 -198 -16 -206
0 -312 -57 -387 -206 -26 -52 -70 -100 -112 -122 -90 -48 -176 -169 -128 -179
19 -4 61 21 94 55 33 33 90 67 128 74 55 10 68 22 68 61 0 312 534 325 592 15
12 -64 17 -68 91 -68 228 0 346 -240 199 -405 l-59 -65 -291 -6 c-273 -7 -292
-9 -292 -45 0 -46 502 -60 586 -17 149 77 236 241 194 368 -19 56 -16 78 19
143 142 265 -162 595 -424 458z m245 -81 c90 -46 120 -105 120 -234 0 -132
-17 -142 -125 -76 -36 22 -89 40 -119 40 -42 0 -61 15 -87 69 -18 38 -45 80
-61 93 -105 87 131 181 272 108z"/>
<path d="M129 499 c-30 -50 36 -60 362 -54 286 4 339 10 339 35 0 38 -678 56
-701 19z"/>
<path d="M49 299 c-30 -49 34 -60 313 -55 240 5 288 11 288 36 0 38 -578 56
-601 19z"/>
<path d="M249 79 c-30 -50 36 -60 362 -54 286 4 339 10 339 35 0 38 -678 56
-701 19z"/>
</g>
</svg>
