<?xml version="1.0" standalone="no"?>
<!DOCTYPE svg PUBLIC "-//W3C//DTD SVG 20010904//EN"
 "http://www.w3.org/TR/2001/REC-SVG-20010904/DTD/svg10.dtd">
<svg version="1.0" xmlns="http://www.w3.org/2000/svg"
 width="79.000000pt" height="60.000000pt" viewBox="0 0 79.000000 60.000000"
 preserveAspectRatio="xMidYMid meet"><g transform="translate(0.000000,60.000000) scale(0.050000,-0.050000)"
fill="#007f8d" stroke="none">
<path d="M644 1137 c-87 -43 -169 -132 -193 -210 -7 -24 -46 -61 -87 -82 -94
-49 -184 -171 -134 -182 19 -4 61 21 94 55 33 33 90 67 128 74 55 10 68 22 68
61 0 312 534 325 592 15 12 -64 17 -68 91 -68 228 0 346 -240 199 -405 l-59
-65 -291 -6 c-273 -7 -292 -9 -292 -45 0 -46 502 -60 586 -17 300 154 250 559
-75 612 -52 8 -79 25 -91 57 -79 208 -334 306 -536 206z"/>
<path d="M129 499 c-30 -50 36 -60 362 -54 286 4 339 10 339 35 0 38 -678 56
-701 19z"/>
<path d="M49 299 c-30 -49 34 -60 313 -55 240 5 288 11 288 36 0 38 -578 56
-601 19z"/>
<path d="M249 79 c-30 -50 36 -60 362 -54 286 4 339 10 339 35 0 38 -678 56
-701 19z"/>
</g>
</svg>
