<?xml version="1.0" standalone="no"?>
<!DOCTYPE svg PUBLIC "-//W3C//DTD SVG 20010904//EN"
 "http://www.w3.org/TR/2001/REC-SVG-20010904/DTD/svg10.dtd">
<svg version="1.0" xmlns="http://www.w3.org/2000/svg"
 width="73.000000pt" height="73.000000pt" viewBox="0 0 73.000000 73.000000"
 preserveAspectRatio="xMidYMid meet">
<g transform="translate(0.000000,73.000000) scale(0.100000,-0.100000)"
fill="#007f8d" stroke="none">
<path d="M342 718 c-17 -17 -15 -93 3 -108 8 -7 22 -10 30 -6 29 11 16 126
-15 126 -3 0 -11 -5 -18 -12z"/>
<path d="M107 623 c-24 -23 45 -112 77 -100 26 10 18 41 -17 75 -33 32 -48 38
-60 25z"/>
<path d="M552 597 c-35 -36 -41 -64 -16 -74 21 -8 86 56 82 82 -5 31 -31 28
-66 -8z"/>
<path d="M308 530 c-74 -22 -118 -84 -118 -165 0 -53 10 -77 53 -123 76 -80
211 -60 266 38 30 55 27 140 -9 189 -40 57 -121 82 -192 61z m142 -75 c76 -73
22 -215 -83 -215 -40 0 -92 24 -111 51 -18 27 -22 110 -5 140 34 64 144 77
199 24z"/>
<path d="M14 386 c-13 -34 4 -47 53 -44 44 3 48 5 48 28 0 23 -4 25 -48 28
-35 2 -49 -1 -53 -12z"/>
<path d="M604 386 c-13 -35 3 -47 58 -44 49 3 53 5 53 28 0 23 -4 25 -53 28
-40 2 -54 -1 -58 -12z"/>
<path d="M132 177 c-35 -36 -41 -64 -16 -74 21 -8 86 56 82 82 -5 31 -31 28
-66 -8z"/>
<path d="M527 203 c-24 -23 45 -112 77 -100 26 10 18 41 -17 75 -33 32 -48 38
-60 25z"/>
<path d="M342 118 c-17 -17 -15 -93 3 -108 23 -19 45 5 45 50 0 65 -19 87 -48
58z"/>
</g>
</svg>
