<?xml version="1.0" standalone="no"?>
<!DOCTYPE svg PUBLIC "-//W3C//DTD SVG 20010904//EN"
 "http://www.w3.org/TR/2001/REC-SVG-20010904/DTD/svg10.dtd">
<svg version="1.0" xmlns="http://www.w3.org/2000/svg"
 width="76.000000pt" height="49.000000pt" viewBox="0 0 76.000000 49.000000"
 preserveAspectRatio="xMidYMid meet">
<g transform="translate(0.000000,49.000000) scale(0.050000,-0.050000)"
fill="#007f8d" stroke="none">
<path d="M805 927 c-80 -39 -87 -78 -10 -57 187 52 365 -22 365 -150 0 -31 13
-40 61 -40 74 0 170 -47 187 -91 41 -107 -8 -235 -98 -257 -49 -13 -72 -72
-27 -72 73 0 170 98 206 208 29 91 -117 271 -222 273 -20 0 -55 29 -77 64 -89
141 -246 191 -385 122z"/>
<path d="M440 798 c-71 -29 -138 -96 -182 -183 -22 -41 -51 -75 -66 -75 -15 0
-60 -36 -100 -80 -125 -139 -86 -320 89 -411 102 -52 784 -41 874 14 222 138
133 497 -124 497 -31 0 -51 11 -51 29 0 138 -282 272 -440 209z m253 -71 c70
-33 127 -115 127 -183 0 -32 18 -41 104 -49 215 -21 283 -289 96 -385 -113
-59 -782 -43 -857 21 -141 118 -69 369 106 369 17 0 31 16 31 35 0 161 226
271 393 192z"/>
</g>
</svg>
