<?xml version="1.0" standalone="no"?>
<!DOCTYPE svg PUBLIC "-//W3C//DTD SVG 20010904//EN"
 "http://www.w3.org/TR/2001/REC-SVG-20010904/DTD/svg10.dtd">
<svg version="1.0" xmlns="http://www.w3.org/2000/svg"
 width="73.000000pt" height="72.000000pt" viewBox="0 0 73.000000 72.000000"
 preserveAspectRatio="xMidYMid meet">
<g transform="translate(0.000000,72.000000) scale(0.050000,-0.050000)"
fill="#007f8d" stroke="none">
<path d="M981 1398 c-27 -11 -62 -31 -78 -44 -18 -15 -97 -24 -204 -24 -212 0
-313 -55 -396 -215 -26 -52 -60 -95 -74 -95 -39 0 -146 -97 -180 -161 -87
-170 24 -402 216 -450 95 -23 73 58 -25 97 -201 78 -181 382 30 438 74 20 90
32 90 71 0 309 534 320 592 13 12 -64 17 -68 91 -68 283 0 368 -368 106 -463
-71 -26 -99 -97 -38 -97 152 0 319 239 270 387 -17 53 -14 78 19 143 137 269
-140 579 -419 468z m260 -103 c177 -119 152 -403 -26 -295 -36 22 -89 40 -119
40 -42 0 -61 15 -87 69 -18 38 -45 80 -61 93 -118 98 157 185 293 93z"/>
<path d="M507 676 c-86 -134 -128 -506 -47 -424 40 41 116 406 90 428 -19 16
-31 15 -43 -4z"/>
<path d="M733 685 c-23 -37 -171 -633 -161 -648 11 -17 68 -24 68 -8 0 4 36
145 81 312 45 168 76 317 71 332 -12 30 -44 36 -59 12z"/>
<path d="M966 676 c-46 -58 -124 -413 -96 -436 37 -30 54 6 112 234 46 182 39
272 -16 202z"/>
</g>
</svg>
