<?xml version="1.0" standalone="no"?>
<!DOCTYPE svg PUBLIC "-//W3C//DTD SVG 20010904//EN"
 "http://www.w3.org/TR/2001/REC-SVG-20010904/DTD/svg10.dtd">
<svg version="1.0" xmlns="http://www.w3.org/2000/svg"
 width="300.000000pt" height="250.000000pt" viewBox="0 0 300.000000 250.000000"
 preserveAspectRatio="xMidYMid meet">
<g transform="translate(0.000000,250.000000) scale(0.100000,-0.100000)"
fill="#007f8d" stroke="none">
<path d="M1423 2481 c-25 -11 -52 -35 -66 -58 -14 -21 -324 -540 -689 -1153
-641 -1078 -663 -1117 -662 -1164 0 -42 5 -53 32 -78 l32 -28 1410 0 c973 0
1417 3 1437 11 64 24 99 91 72 140 -31 59 -1354 2248 -1376 2277 -50 67 -119
86 -190 53z m595 -1288 l522 -878 -552 -6 c-859 -10 -1530 -10 -1526 -1 9 23
1024 1761 1028 1762 3 0 240 -395 528 -877z"/>
<path d="M1435 1702 c-32 -11 -51 -25 -70 -55 -20 -31 -19 -57 11 -497 19
-291 21 -299 60 -337 49 -50 118 -39 159 24 19 28 31 178 50 614 l7 166 -32
36 c-43 49 -121 69 -185 49z"/>
<path d="M1450 672 c-42 -21 -80 -75 -80 -114 0 -41 27 -95 59 -117 38 -27 76
-33 123 -20 119 32 142 178 39 246 -41 28 -93 30 -141 5z"/>
</g>
</svg>
