<?xml version="1.0" standalone="no"?>
<!DOCTYPE svg PUBLIC "-//W3C//DTD SVG 20010904//EN"
 "http://www.w3.org/TR/2001/REC-SVG-20010904/DTD/svg10.dtd">
<svg version="1.0" xmlns="http://www.w3.org/2000/svg"
 width="72.000000pt" height="57.000000pt" viewBox="0 0 72.000000 57.000000"
 preserveAspectRatio="xMidYMid meet"><g transform="translate(0.000000,57.000000) scale(0.050000,-0.050000)"
fill="#007f8d" stroke="none">
<path d="M530 1092 c-95 -41 -186 -128 -213 -202 -15 -43 -45 -77 -81 -92
-292 -120 -225 -618 83 -618 54 0 16 74 -50 98 -211 76 -191 405 27 456 59 14
75 29 85 77 63 305 533 303 591 -3 12 -64 17 -68 95 -68 277 0 357 -371 100
-464 -73 -26 -95 -96 -30 -96 93 0 234 143 262 264 34 154 -98 343 -259 368
-68 11 -88 26 -119 86 -94 183 -315 271 -491 194z"/>
<path d="M762 672 c-33 -40 -13 -97 31 -88 45 8 53 40 21 84 -24 32 -29 33
-52 4z"/>
<path d="M471 516 c-68 -98 12 -202 93 -121 38 38 38 43 7 102 -38 75 -58 78
-100 19z"/>
<path d="M700 297 c-69 -96 -75 -154 -23 -218 76 -95 243 -33 243 90 0 49
-108 211 -140 211 -11 0 -47 -37 -80 -83z"/>
</g>
</svg>
