<?xml version="1.0" standalone="no"?>
<!DOCTYPE svg PUBLIC "-//W3C//DTD SVG 20010904//EN"
 "http://www.w3.org/TR/2001/REC-SVG-20010904/DTD/svg10.dtd">
<svg version="1.0" xmlns="http://www.w3.org/2000/svg"
 width="74.000000pt" height="74.000000pt" viewBox="0 0 74.000000 74.000000"
 preserveAspectRatio="xMidYMid meet"><g transform="translate(0.000000,74.000000) scale(0.050000,-0.050000)"
fill="#007f8d" stroke="none">
<path d="M1000 1438 c-27 -11 -70 -39 -94 -62 -38 -35 -52 -38 -108 -18 -193
67 -438 -46 -499 -232 -12 -36 -35 -66 -50 -66 -44 0 -172 -123 -202 -194 -72
-172 44 -381 231 -419 98 -19 80 43 -26 90 -200 89 -182 382 27 445 65 19 80
34 90 89 58 308 590 296 591 -14 0 -49 7 -53 111 -61 272 -23 346 -390 94
-465 -86 -26 -95 -103 -10 -82 153 36 234 151 238 337 2 84 18 182 39 236 96
247 -183 515 -432 416z m229 -86 c85 -36 131 -121 131 -242 0 -114 -29 -128
-146 -72 -48 23 -104 42 -125 42 -46 0 -163 201 -140 239 38 61 175 77 280 33z"/>
<path d="M492 688 c-20 -53 -13 -88 17 -88 35 0 78 72 61 100 -19 31 -64 24
-78 -12z"/>
<path d="M942 675 c-22 -58 11 -106 51 -73 15 13 27 44 27 70 0 62 -55 64 -78
3z"/>
<path d="M684 496 c-13 -13 -24 -45 -24 -70 0 -63 56 -59 72 5 16 62 -13 100
-48 65z"/>
<path d="M401 322 c-25 -47 -13 -82 28 -82 41 0 56 63 24 96 -25 25 -32 23
-52 -14z"/>
<path d="M864 336 c-13 -13 -24 -41 -24 -61 0 -50 67 -38 77 12 9 50 -23 79
-53 49z"/>
<path d="M567 110 c-16 -42 8 -95 38 -85 39 13 44 115 6 115 -18 0 -37 -13
-44 -30z"/>
</g>
</svg>
