<?xml version="1.0" standalone="no"?>
<!DOCTYPE svg PUBLIC "-//W3C//DTD SVG 20010904//EN"
 "http://www.w3.org/TR/2001/REC-SVG-20010904/DTD/svg10.dtd">
<svg version="1.0" xmlns="http://www.w3.org/2000/svg"
 width="80.000000pt" height="80.000000pt" viewBox="0 0 80.000000 80.000000"
 preserveAspectRatio="xMidYMid meet">
<g transform="translate(0.000000,80.000000) scale(0.050000,-0.050000)"
fill="#007f8d" stroke="none">
<path d="M1023 1470 c-77 -44 -102 -49 -221 -37 -191 17 -334 -63 -424 -238
-21 -41 -48 -75 -60 -75 -87 0 -218 -184 -218 -305 0 -90 98 -241 177 -274 66
-27 77 -58 42 -122 -18 -35 -13 -39 50 -39 79 0 89 -29 51 -159 -24 -83 -9
-70 109 99 l90 130 -59 6 c-77 8 -76 35 5 190 36 68 68 131 72 140 4 9 -36 14
-89 10 -96 -6 -96 -6 -126 -101 -36 -116 -91 -127 -170 -33 -116 137 -46 356
124 390 45 9 64 24 64 51 0 305 544 338 592 37 12 -75 13 -75 124 -85 266 -22
319 -409 63 -465 -66 -15 -87 -90 -24 -90 149 2 296 201 275 374 -9 75 -4 120
19 164 146 282 -188 591 -466 432z m340 -104 c145 -145 90 -362 -68 -266 -36
22 -90 40 -120 40 -30 0 -55 8 -55 17 0 10 -23 51 -51 93 -117 172 137 273
294 116z"/>
<path d="M825 776 c-28 -36 -186 -618 -173 -639 44 -71 72 -1 211 528 27 101
5 164 -38 111z"/>
<path d="M1046 775 c-29 -38 -128 -415 -115 -436 19 -32 49 -21 70 26 92 207
126 518 45 410z"/>
</g>
</svg>
